<svg viewBox="0 0 680 182" width="100%" xmlns="http://www.w3.org/2000/svg">
<defs>
<style>
.ts{fill:#111827;font-family:Arial,sans-serif}
.sub{fill:#6b7280;font-family:Arial,sans-serif}
</style>
</defs>
<rect x="18" y="10" width="204" height="76" rx="6" fill="#fef3c7" stroke="#d97706" stroke-width="1"/>
<text class="ts" x="120" y="32" text-anchor="middle" font-size="11" font-weight="bold">Python (FastMCP)</text>
<text class="sub" x="120" y="50" text-anchor="middle" font-size="10">аннотации типов → авто-схема</text>
<text class="sub" x="120" y="66" text-anchor="middle" font-size="10">ML, бизнес-логика, данные</text>
<rect x="238" y="10" width="204" height="76" rx="6" fill="#dbeafe" stroke="#60a5fa" stroke-width="1"/>
<text class="ts" x="340" y="32" text-anchor="middle" font-size="11" font-weight="bold">TypeScript (MCP SDK)</text>
<text class="sub" x="340" y="50" text-anchor="middle" font-size="10">Zod-схема, явные ответы</text>
<text class="sub" x="340" y="66" text-anchor="middle" font-size="10">Node/React, фронтенд</text>
<rect x="458" y="10" width="204" height="76" rx="6" fill="#ccfbf1" stroke="#14b8a6" stroke-width="1"/>
<text class="ts" x="560" y="32" text-anchor="middle" font-size="11" font-weight="bold">Go (go-sdk)</text>
<text class="sub" x="560" y="50" text-anchor="middle" font-size="10">быстрый холодный старт</text>
<text class="sub" x="560" y="66" text-anchor="middle" font-size="10">микросервисы</text>
<rect x="18" y="96" width="204" height="76" rx="6" fill="#ffe4e6" stroke="#f43f5e" stroke-width="1"/>
<text class="ts" x="120" y="118" text-anchor="middle" font-size="11" font-weight="bold">Rust (rmcp)</text>
<text class="sub" x="120" y="136" text-anchor="middle" font-size="10">максимальная производительность</text>
<text class="sub" x="120" y="152" text-anchor="middle" font-size="10">системные задачи</text>
<rect x="238" y="96" width="204" height="76" rx="6" fill="#ede9fe" stroke="#8b5cf6" stroke-width="1"/>
<text class="ts" x="340" y="118" text-anchor="middle" font-size="11" font-weight="bold">Java / Kotlin</text>
<text class="sub" x="340" y="136" text-anchor="middle" font-size="10">io.modelcontextprotocol:mcp</text>
<text class="sub" x="340" y="152" text-anchor="middle" font-size="10">JVM-стек, Spring Boot</text>
<rect x="458" y="96" width="204" height="76" rx="6" fill="#e0f2fe" stroke="#0284c7" stroke-width="1"/>
<text class="ts" x="560" y="118" text-anchor="middle" font-size="11" font-weight="bold">C# / .NET</text>
<text class="sub" x="560" y="136" text-anchor="middle" font-size="10">ModelContextProtocol (NuGet)</text>
<text class="sub" x="560" y="152" text-anchor="middle" font-size="10">.NET-стек, Azure</text>
</svg>
